# xmcd CD database file
#
# Track frame offsets:
#	150
#	16309
#	32383
#	53702
#	70177
#	87905
#	111698
#	136786
#	150512
#	172727
#	194910
#	208438
#	221201
#	247005
#	267725
#	283531
#	295405
#	317309
#
# Disc length: 4491 seconds
#
# Revision: 1
# Processed by: cddbd v1.4PL0 Copyright (c) Steve Scherf et al.
# Submitted via: CDex 1.50beta10
#
DISCID=16118912
DTITLE=Jacques Loussier - Plays Bach
DYEAR=2001
DGENRE=Jazz
TTITLE0=Air on the G string
TTITLE1=Siciliano in G Major
TTITLE2=Pastorale in C minor
TTITLE3=Gavotte in B minor
TTITLE4=Minuet in G Major
TTITLE5=Prelude N.12 in F minor
TTITLE6=Concerto in C minor BWV 1060 allegro
TTITLE7=Gavotte in D Major
TTITLE8=Italian concerto - Allegro
TTITLE9=Italian concerto - Adagio
TTITLE10=Italian concerto - Presto
TTITLE11=Little fugue in G minor BWV 578
TTITLE12=Concerto in D Major BWV 1054 andante
TTITLE13=Concerto in D Major BWV 1054 allegro
TTITLE14=Fugue en D Major
TTITLE15=Invention N.8 in F Major BWV 77
TTITLE16=Vivace (from Concerto in C minor)
TTITLE17=Zion Hort Die Wachter Singen
EXTD=YEAR: 2001
EXTT0=
EXTT1=
EXTT2=
EXTT3=
EXTT4=
EXTT5=
EXTT6=
EXTT7=
EXTT8=
EXTT9=
EXTT10=
EXTT11=
EXTT12=
EXTT13=
EXTT14=
EXTT15=
EXTT16=
EXTT17=
PLAYORDER=
